<svg width="23" height="21" viewBox="0 0 23 21" fill="none" xmlns="http://www.w3.org/2000/svg">
<path d="M9.57534 9.94176C10.7629 9.3288 11.4142 8.44767 11.4142 7.10683C11.4142 4.38683 9.38379 3.73557 7.0852 3.73557H0.687463V17.2972H7.23844C9.72858 17.2972 12.0272 16.1096 12.0272 13.3513C12.0272 11.6657 11.2227 10.4015 9.57534 9.94176ZM3.63732 6.03416H6.47224C7.54492 6.03416 8.50266 6.34063 8.50266 7.60486C8.50266 8.75415 7.73647 9.21387 6.66379 9.21387H3.63732V6.03416ZM6.85534 14.9987H3.63732V11.2443H6.89365C8.2345 11.2443 9.039 11.8189 9.039 13.1981C9.039 14.5772 8.04295 14.9987 6.85534 14.9987ZM20.5703 5.76599V4.42514H15.092V5.76599H20.5703ZM22.7539 12.5468C22.7539 9.63528 21.03 7.18345 17.9652 7.18345C14.9387 7.18345 12.9083 9.44373 12.9083 12.3936C12.9083 15.4584 14.8621 17.5654 17.9652 17.5654C20.3021 17.5654 21.8345 16.4927 22.5624 14.2708H20.1872C19.919 15.1136 18.8463 15.535 18.0418 15.535C16.4711 15.535 15.6283 14.6156 15.6283 13.0449H22.7156C22.7156 12.8916 22.7539 12.7001 22.7539 12.5468ZM15.6283 11.3209C15.7049 10.0567 16.586 9.25218 17.8503 9.25218C19.2294 9.25218 19.919 10.0184 20.0339 11.3209H15.6283Z" fill="white"/>
</svg>
