<svg width="21" height="22" viewBox="0 0 21 22" fill="none" xmlns="http://www.w3.org/2000/svg">
<g clip-path="url(#clip0_158_100)">
<path d="M10.2002 2.89119C5.10238 2.89119 0.972045 7.05873 0.972045 12.1193C0.972045 17.2171 5.10238 21.3474 10.2002 21.3474C15.2608 21.3474 19.4283 17.2171 19.4283 12.1193C19.4283 7.05873 15.2608 2.89119 10.2002 2.89119ZM16.2654 7.17036C17.3817 8.50993 18.0515 10.2216 18.0515 12.0821C17.791 12.0077 15.1863 11.4867 12.5816 11.8216C12.3584 11.3007 12.1723 10.8542 11.8746 10.2588C14.8142 9.06808 16.1166 7.39362 16.2654 7.17036ZM15.4096 6.24011C15.2608 6.46337 14.07 8.06341 11.2793 9.10529C9.97691 6.72384 8.56292 4.78891 8.33966 4.49123C10.8327 3.89587 13.4747 4.52844 15.4096 6.24011ZM6.81404 5.01217C7.0373 5.30985 8.45129 7.24478 9.75365 9.58902C6.06984 10.5565 2.83255 10.5565 2.46045 10.5193C2.98139 8.10062 4.61864 6.05406 6.81404 5.01217ZM2.31161 12.1565C2.31161 12.0821 2.31161 12.0077 2.31161 11.8961C2.6465 11.9333 6.47915 11.9705 10.3862 10.7797C10.6467 11.2263 10.8327 11.6728 11.056 12.1193C8.19082 12.9379 5.58611 15.245 4.32096 17.4032C3.05581 16.0264 2.31161 14.1659 2.31161 12.1565ZM5.32564 18.3706C6.18147 16.6962 8.41408 14.5008 11.5769 13.4217C12.6933 16.2869 13.1398 18.7055 13.2514 19.4125C10.7211 20.4916 7.66988 20.1939 5.32564 18.3706ZM14.591 18.6683C14.5166 18.2218 14.07 15.9148 13.0654 13.0496C15.5212 12.6775 17.6794 13.31 17.9771 13.3845C17.605 15.5799 16.3399 17.4776 14.591 18.6683Z" fill="white"/>
</g>
<defs>
<clipPath id="clip0_158_100">
<rect width="19.6627" height="20.3649" fill="white" transform="translate(0.848267 0.986816)"/>
</clipPath>
</defs>
</svg>
