<svg width="21" height="21" viewBox="0 0 21 21" fill="none" xmlns="http://www.w3.org/2000/svg">
<path d="M6.86994 16.0158C6.86994 15.9364 6.79057 15.8571 6.67152 15.8571C6.55247 15.8571 6.4731 15.9364 6.4731 16.0158C6.4731 16.0952 6.55247 16.1745 6.67152 16.1349C6.79057 16.1349 6.86994 16.0952 6.86994 16.0158ZM5.63974 15.8174C5.63974 15.8968 5.71911 16.0158 5.83816 16.0158C5.91753 16.0555 6.03658 16.0158 6.07626 15.9364C6.07626 15.8571 6.03658 15.7777 5.91753 15.738C5.79848 15.6983 5.67942 15.738 5.63974 15.8174ZM7.42551 15.7777C7.30646 15.7777 7.22709 15.8571 7.22709 15.9761C7.22709 16.0555 7.34615 16.0952 7.4652 16.0555C7.58425 16.0158 7.66362 15.9761 7.62393 15.8968C7.62393 15.8174 7.50488 15.738 7.42551 15.7777ZM10.005 0.539115C4.52859 0.539115 0.322107 4.7456 0.322107 10.222C0.322107 14.6269 3.06029 18.3968 7.02867 19.7461C7.54456 19.8255 7.7033 19.508 7.7033 19.2699C7.7033 18.9921 7.7033 17.6428 7.7033 16.8095C7.7033 16.8095 4.92543 17.4047 4.33017 15.619C4.33017 15.619 3.89365 14.4681 3.25871 14.1904C3.25871 14.1904 2.34598 13.5554 3.29839 13.5554C3.29839 13.5554 4.29049 13.6348 4.84606 14.5872C5.71911 16.1349 7.14773 15.6983 7.74298 15.4206C7.82235 14.7856 8.06045 14.3491 8.37792 14.0713C6.15563 13.8332 3.89365 13.5157 3.89365 9.70608C3.89365 8.59493 4.21112 8.07904 4.84606 7.36473C4.72701 7.08695 4.40954 6.05517 4.96512 4.66623C5.75879 4.42813 7.7033 5.7377 7.7033 5.7377C8.49698 5.49959 9.33034 5.42023 10.1637 5.42023C11.0367 5.42023 11.8701 5.49959 12.6638 5.7377C12.6638 5.7377 14.5686 4.38845 15.402 4.66623C15.9575 6.05517 15.6004 7.08695 15.521 7.36473C16.156 8.07904 16.5528 8.59493 16.5528 9.70608C16.5528 13.5157 14.2114 13.8332 11.9892 14.0713C12.3463 14.3888 12.6638 14.984 12.6638 15.9364C12.6638 17.246 12.6241 18.9127 12.6241 19.2302C12.6241 19.508 12.8225 19.8255 13.3384 19.7064C17.3068 18.3968 20.0053 14.6269 20.0053 10.222C20.0053 4.7456 15.521 0.539115 10.005 0.539115ZM4.17144 14.23C4.09207 14.2697 4.13175 14.3888 4.17144 14.4681C4.25081 14.5078 4.33017 14.5475 4.40954 14.5078C4.44923 14.4681 4.44923 14.3491 4.36986 14.2697C4.29049 14.23 4.21112 14.1904 4.17144 14.23ZM3.73492 13.9126C3.69523 13.9919 3.73492 14.0316 3.81428 14.0713C3.89365 14.111 3.97302 14.111 4.0127 14.0316C4.0127 13.9919 3.97302 13.9522 3.89365 13.9126C3.81428 13.8729 3.7746 13.8729 3.73492 13.9126ZM5.0048 15.3412C4.96512 15.3809 4.96512 15.4999 5.08417 15.5793C5.16353 15.6587 5.28259 15.6983 5.32227 15.619C5.36195 15.5793 5.36195 15.4602 5.28259 15.3809C5.20322 15.3015 5.08417 15.2618 5.0048 15.3412ZM4.56828 14.7459C4.48891 14.7856 4.48891 14.9047 4.56828 14.984C4.64764 15.0634 4.72701 15.1031 4.80638 15.0634C4.84606 15.0237 4.84606 14.9047 4.80638 14.8253C4.72701 14.7459 4.64764 14.7062 4.56828 14.7459Z" fill="white"/>
</svg>
