<svg width="19" height="22" viewBox="0 0 19 22" fill="none" xmlns="http://www.w3.org/2000/svg">
<g clip-path="url(#clip0_158_105)">
<path d="M4.70088 19.3383H0.896151V7.08594H4.70088V19.3383ZM2.79647 5.41461C1.57984 5.41461 0.593018 4.4069 0.593018 3.19027C0.593018 2.60588 0.825166 2.04542 1.23839 1.63219C1.65162 1.21897 2.21208 0.986816 2.79647 0.986816C3.38086 0.986816 3.94132 1.21897 4.35455 1.63219C4.76778 2.04542 4.99992 2.60588 4.99992 3.19027C4.99992 4.4069 4.01269 5.41461 2.79647 5.41461ZM18.9408 19.3383H15.1442V13.3739C15.1442 11.9525 15.1156 10.1296 13.1661 10.1296C11.1879 10.1296 10.8848 11.6739 10.8848 13.2715V19.3383H7.08417V7.08594H10.7332V8.75727H10.7865C11.2944 7.79462 12.5352 6.77871 14.3864 6.77871C18.237 6.77871 18.9449 9.31438 18.9449 12.6079V19.3383H18.9408Z" fill="white"/>
</g>
<defs>
<clipPath id="clip0_158_105">
<rect width="18.3519" height="20.9735" fill="white" transform="translate(0.593018 0.986816)"/>
</clipPath>
</defs>
</svg>
